<?xml version="1.0" standalone="no"?>
<!DOCTYPE svg PUBLIC "-//W3C//DTD SVG 20010904//EN"
 "http://www.w3.org/TR/2001/REC-SVG-20010904/DTD/svg10.dtd">
<svg version="1.0" xmlns="http://www.w3.org/2000/svg"
 width="1024.000000pt" height="1024.000000pt" viewBox="0 0 1024.000000 1024.000000"
 preserveAspectRatio="xMidYMid meet">
<metadata>
Created by potrace 1.16, written by Peter Selinger 2001-2019
</metadata>
<g transform="translate(0.000000,1024.000000) scale(0.100000,-0.100000)"
fill="#000000" stroke="none">
<path d="M4825 9299 c-517 -35 -999 -162 -1486 -392 -289 -136 -654 -379 -949
-631 -459 -392 -843 -919 -1092 -1495 -307 -712 -398 -1610 -242 -2381 154
-761 454 -1379 940 -1934 158 -181 261 -282 444 -437 314 -266 605 -457 980
-644 606 -301 1207 -441 1815 -421 517 16 978 118 1412 312 625 279 1213 722
1670 1259 259 304 512 721 653 1076 195 489 295 962 307 1459 23 917 -248
1807 -766 2520 -146 202 -434 514 -631 684 -440 381 -990 693 -1505 853 -471
146 -1024 207 -1550 172z m690 -254 c745 -66 1354 -295 1945 -733 288 -213
604 -531 827 -832 652 -880 873 -1971 637 -3140 -106 -526 -364 -1082 -723
-1555 -290 -383 -716 -765 -1131 -1015 -454 -272 -967 -456 -1470 -525 -161
-22 -591 -31 -772 -16 -500 43 -1044 210 -1498 461 -523 289 -1008 712 -1340
1169 -277 384 -465 761 -589 1185 -173 590 -208 1276 -95 1876 146 778 498
1438 1073 2010 242 241 466 418 731 578 460 279 913 440 1459 517 255 37 660
45 946 20z"/>
<path d="M5311 7938 c86 -61 286 -252 368 -353 154 -189 295 -424 394 -659 36
-84 71 -171 78 -194 7 -23 18 -42 26 -42 24 0 136 61 191 104 61 47 153 158
187 225 36 73 63 170 75 280 14 120 20 109 -105 206 -257 200 -559 352 -845
425 -84 22 -343 59 -409 60 -34 0 -34 -1 40 -52z"/>
<path d="M4700 7960 c-419 -79 -811 -278 -1120 -567 l-74 -70 174 -6 c303 -11
518 -53 850 -166 250 -84 395 -144 688 -282 298 -140 379 -174 482 -200 94
-24 250 -37 250 -21 0 21 -81 216 -132 317 -162 323 -361 576 -609 775 -141
113 -354 241 -396 239 -10 0 -61 -9 -113 -19z"/>
<path d="M6821 7127 c-18 -90 -68 -209 -126 -297 -92 -140 -232 -256 -393
-326 -55 -23 -63 -30 -58 -48 4 -12 18 -68 33 -125 l26 -103 46 6 c229 29 474
32 656 6 43 -7 131 -29 195 -50 63 -21 116 -36 118 -35 2 1 -8 59 -22 127 -32
155 -81 298 -157 454 -65 133 -217 370 -271 422 l-34 32 -13 -63z"/>
<path d="M3420 7094 c-14 -2 -44 -7 -68 -10 -38 -5 -46 -11 -83 -65 -109 -161
-191 -332 -259 -538 -118 -359 -134 -742 -49 -1161 25 -124 57 -230 70 -230 5
0 62 25 127 56 375 179 1044 454 1547 636 530 192 957 320 1285 384 52 10 97
19 98 20 2 2 -10 54 -28 117 l-31 114 -132 6 c-220 10 -389 62 -725 221 -529
250 -837 357 -1227 427 -115 20 -457 35 -525 23z"/>
<path d="M6442 6026 c-51 -7 -95 -15 -97 -18 -2 -2 2 -53 10 -114 8 -60 15
-115 15 -121 0 -8 13 -13 31 -13 89 0 260 -58 382 -131 94 -56 229 -192 289
-290 47 -78 118 -242 118 -275 1 -30 28 40 61 156 50 176 94 494 87 625 l-3
60 -63 31 c-67 34 -141 59 -237 82 -85 20 -472 25 -593 8z"/>
<path d="M6045 5958 c-22 -5 -96 -23 -165 -40 -535 -128 -1513 -478 -2245
-803 -16 -8 -122 -55 -235 -105 -113 -50 -224 -99 -247 -108 -24 -9 -43 -22
-43 -29 0 -7 19 -49 43 -95 49 -96 157 -259 382 -581 117 -166 229 -328 334
-480 47 -67 148 -212 225 -322 77 -110 166 -238 199 -285 32 -47 157 -224 277
-395 120 -170 292 -415 382 -542 90 -128 166 -233 169 -233 4 0 30 35 59 78
30 42 139 200 244 350 105 150 234 335 286 411 52 75 158 227 234 337 226 322
376 539 488 704 58 85 153 224 211 307 139 198 314 461 361 542 l37 64 -16
109 c-19 129 -62 269 -111 355 -67 121 -202 242 -336 302 -54 24 -147 51 -178
51 -6 0 -10 -47 -10 -111 0 -382 -78 -868 -185 -1154 -47 -126 -134 -310 -173
-366 -25 -37 -43 -50 -118 -81 -125 -52 -276 -109 -280 -105 -2 2 24 34 58 73
287 322 456 866 484 1552 4 89 4 162 0 162 -3 0 -33 -11 -66 -24 -147 -60
-291 -188 -637 -564 -593 -646 -865 -891 -1158 -1043 l-77 -40 -67 37 c-36 21
-86 50 -110 64 l-43 27 103 50 c219 105 469 296 725 551 149 149 399 418 536
577 119 139 338 351 428 414 88 63 229 134 300 152 58 15 57 12 37 159 -11 80
-13 85 -37 87 -14 1 -43 -3 -65 -9z"/>
</g>
</svg>
