<?xml version="1.0" standalone="no"?>
<!DOCTYPE svg PUBLIC "-//W3C//DTD SVG 20010904//EN"
 "http://www.w3.org/TR/2001/REC-SVG-20010904/DTD/svg10.dtd">
<svg version="1.0" xmlns="http://www.w3.org/2000/svg"
 width="1024.000000pt" height="1024.000000pt" viewBox="0 0 1024.000000 1024.000000"
 preserveAspectRatio="xMidYMid meet">
<metadata>
Created by potrace 1.16, written by Peter Selinger 2001-2019
</metadata>
<g transform="translate(0.000000,1024.000000) scale(0.100000,-0.100000)"
fill="#000000" stroke="none">
<path d="M4870 9314 c-526 -31 -1067 -172 -1538 -400 -346 -167 -586 -320
-862 -549 -516 -430 -915 -962 -1175 -1571 -163 -379 -249 -701 -311 -1159
-21 -153 -30 -666 -15 -848 83 -984 500 -1893 1186 -2582 555 -558 1203 -932
1950 -1125 466 -121 980 -157 1475 -105 727 77 1465 371 2050 818 362 277 698
631 937 987 390 582 610 1189 690 1900 24 216 24 732 -1 950 -132 1177 -752
2227 -1727 2927 -213 153 -527 328 -784 438 -334 143 -793 261 -1165 300 -140
15 -578 27 -710 19z m500 -264 c800 -55 1506 -324 2150 -819 719 -552 1241
-1397 1430 -2315 49 -238 64 -416 64 -741 0 -316 -8 -435 -45 -665 -100 -627
-352 -1223 -729 -1725 -483 -645 -1143 -1121 -1911 -1379 -454 -153 -773 -202
-1269 -193 -298 5 -415 16 -650 63 -640 127 -1282 435 -1788 857 -148 123
-415 396 -536 547 -494 619 -789 1351 -857 2129 -16 191 -6 634 19 826 85 636
333 1271 695 1775 374 522 866 943 1442 1235 597 303 1321 451 1985 405z"/>
<path d="M5236 7992 c12 -9 53 -39 90 -67 89 -64 247 -217 339 -326 192 -230
354 -514 465 -816 20 -54 40 -93 48 -93 21 0 131 57 183 96 100 73 193 207
234 336 19 60 45 234 45 300 0 4 -42 41 -92 81 -358 287 -812 468 -1258 501
-72 6 -74 5 -54 -12z"/>
<path d="M4690 7970 c-391 -74 -761 -254 -1055 -513 -172 -152 -173 -142 23
-143 443 -1 878 -126 1562 -446 310 -146 408 -185 525 -209 102 -21 205 -25
205 -8 0 24 -75 199 -141 329 -124 246 -231 400 -399 574 -165 171 -350 310
-538 405 -70 35 -58 35 -182 11z"/>
<path d="M6837 7190 c-3 -8 -13 -46 -23 -85 -67 -265 -255 -490 -494 -591 -36
-15 -69 -31 -73 -34 -5 -4 6 -62 24 -130 l33 -122 45 6 c243 31 504 32 676 1
50 -9 135 -31 190 -50 55 -19 102 -32 104 -29 10 10 -33 195 -75 323 -70 214
-163 396 -295 581 -100 140 -107 148 -112 130z"/>
<path d="M3371 7090 c-35 -5 -70 -11 -77 -14 -19 -7 -122 -181 -185 -311 -98
-205 -154 -378 -196 -605 -27 -148 -24 -552 5 -715 22 -118 76 -329 91 -353 5
-9 57 11 192 74 462 215 1211 516 1734 697 409 142 796 253 1055 303 52 10 96
19 98 20 3 2 -19 92 -44 180 l-15 51 -137 6 c-222 10 -374 58 -735 229 -502
237 -827 350 -1192 414 -118 21 -191 27 -340 29 -104 2 -219 0 -254 -5z"/>
<path d="M6443 6026 c-50 -6 -94 -14 -97 -17 -3 -3 1 -54 9 -115 8 -60 15
-115 15 -121 0 -8 13 -13 33 -13 17 0 61 -7 97 -15 323 -76 564 -300 674 -625
l23 -71 26 68 c63 170 107 406 116 621 l6 153 -35 22 c-91 57 -212 96 -355
117 -92 13 -396 11 -512 -4z"/>
<path d="M5945 5936 c-582 -140 -1372 -419 -2236 -789 -266 -115 -538 -235
-582 -258 l-27 -15 48 -99 c27 -55 80 -145 117 -200 135 -198 613 -886 814
-1170 112 -159 246 -348 296 -420 51 -71 156 -220 234 -330 78 -110 224 -316
324 -457 100 -142 186 -256 192 -255 13 5 797 1127 1290 1847 88 129 238 348
332 485 94 138 196 290 227 339 53 85 56 92 56 155 0 142 -63 349 -140 468
-58 88 -174 192 -268 241 -67 35 -177 71 -218 72 -7 0 -13 -64 -17 -192 -17
-524 -103 -931 -272 -1285 -88 -185 -94 -191 -232 -247 -65 -27 -149 -59 -187
-72 l-69 -24 19 23 c11 12 39 43 62 70 46 51 131 179 179 267 167 313 269 753
289 1259 4 94 4 171 0 171 -3 0 -33 -11 -66 -24 -149 -61 -294 -189 -648 -576
-573 -625 -859 -882 -1148 -1031 l-75 -39 -67 37 c-37 20 -87 49 -111 64 l-43
26 108 52 c334 160 632 424 1226 1091 195 219 333 354 446 438 94 70 234 143
310 163 60 15 59 11 39 159 -15 104 -7 102 -202 56z"/>
</g>
</svg>
